
<svg height="24px" version="1.1" viewBox="0 0 24 24" width="24px">
    <g fill="none" fill-rule="evenodd" stroke="none" stroke-width="1">
    <g transform="translate(-431.000000, -551.000000)">
        <g transform="translate(215.000000, 119.000000)"/>
            <path d="M446.818182,554 L439.181818,554 C439.181818,554 437,554 437,556.105135 L437,571.894737 C437,573.982782 439.181818,574 439.181818,574 L446.818182,574 C446.818182,574 449,574 449,571.894737 L449,556.105135 C449,554 446.818182,554 446.818182,554 L446.818182,554 Z M446.888889,555.000105 L439.111111,555.000105 C439.111111,555.000105 438,554.967345 438,556.058922 L438,571.941183 C438,573 439.111111,573 439.111111,573 L446.888889,573 C446.888889,573 448,573 448,571.941183 L448,556.058922 C448,555.000105 446.888889,555.000105 446.888889,555.000105 L446.888889,555.000105 Z M440.970215,553.502686 L445,553.502686 C445,553.502686 445,552 444,552 L442,552 C441,552 441,553.502686 440.970215,553.502686 Z M442.958198,558 L441,564.480226 L442.958198,563.863893 L442.958198,569 L445,562.322548 L442.958198,562.585516 L442.958198,558 L442.958198,558 Z" fill="#000000"/>
        </g>
    </g>
</svg>